<svg width="84" height="93" viewBox="0 0 84 93" fill="none" xmlns="http://www.w3.org/2000/svg">
<g clip-path="url(#clip0_436_164)">
<path d="M83.3539 53.7656C83.3539 65.8084 73.405 75.5625 61.1217 75.5625L59.6396 75.5625C56.3604 75.5625 53.711 72.965 53.711 69.75C53.711 66.535 56.3604 63.9375 59.6396 63.9375L61.1217 63.9375C66.8465 63.9375 71.4967 59.3783 71.4967 53.7656L71.4967 52.3125L59.6396 52.3125C53.0996 52.3125 47.7825 47.0994 47.7825 40.6875L47.7825 29.0625C47.7825 22.6506 53.0996 17.4375 59.6396 17.4375L71.4967 17.4375C78.0367 17.4375 83.3539 22.6506 83.3539 29.0625L83.3539 53.7656ZM35.9253 53.7656C35.9253 65.8084 25.9764 75.5625 13.6932 75.5625L12.211 75.5625C8.93179 75.5625 6.28246 72.965 6.28246 69.75C6.28246 66.535 8.93179 63.9375 12.211 63.9375L13.6932 63.9375C19.4179 63.9375 24.0682 59.3783 24.0682 53.7656L24.0682 52.3125L12.211 52.3125C5.67108 52.3125 0.353884 47.0994 0.353885 40.6875L0.353886 29.0625C0.353886 22.6506 5.67108 17.4375 12.211 17.4375L24.0682 17.4375C30.6081 17.4375 35.9253 22.6506 35.9253 29.0625L35.9253 53.7656Z" fill="#EBEBEB"/>
</g>
<defs>
<clipPath id="clip0_436_164">
<rect width="83" height="93" fill="white" transform="translate(83.3539 93) rotate(-180)"/>
</clipPath>
</defs>
</svg>
