<svg width="41" height="40" viewBox="0 0 41 40" fill="none" xmlns="http://www.w3.org/2000/svg">
<path d="M20.0943 0.0727539C22.8657 0.0727539 25.4698 0.594467 27.9067 1.63789C30.3436 2.68132 32.47 4.10417 34.2857 5.90646C36.1014 7.70874 37.5349 9.8114 38.5861 12.2144C39.6373 14.6175 40.1629 17.1944 40.1629 19.9453C40.1629 22.6961 39.6373 25.281 38.5861 27.6998C37.5349 30.1187 36.1014 32.2293 34.2857 34.0315C32.47 35.8338 30.3436 37.2567 27.9067 38.3001C25.4698 39.3435 22.8657 39.8652 20.0943 39.8652C17.3229 39.8652 14.7268 39.3435 12.3058 38.3001C9.88481 37.2567 7.76645 35.8338 5.95072 34.0315C4.13499 32.2293 2.70152 30.1187 1.65031 27.6998C0.599093 25.281 0.0734863 22.6961 0.0734863 19.9453C0.0734863 17.1944 0.599093 14.6175 1.65031 12.2144C2.70152 9.8114 4.13499 7.70874 5.95072 5.90646C7.76645 4.10417 9.88481 2.68132 12.3058 1.63789C14.7268 0.594467 17.3229 0.0727539 20.0943 0.0727539ZM27.6439 8.75216H23.3913C22.5631 8.75216 21.7986 8.89445 21.0977 9.17902C20.3969 9.46359 19.7837 9.84302 19.2581 10.3173C18.7325 10.7916 18.3264 11.3291 18.0397 11.9299C17.753 12.5306 17.6096 13.1314 17.6096 13.7322V16.2459H13.8348V21.1784H17.6096V31.1384H22.6268V21.1784H26.3538V16.2459H22.6268V14.9653C22.6268 14.5859 22.7781 14.2855 23.0807 14.0642C23.3833 13.8428 23.6461 13.7322 23.8691 13.7322H27.6439V8.75216Z" fill="#323030"/>
</svg>
