<svg width="251" height="51" viewBox="0 0 251 51" fill="none" xmlns="http://www.w3.org/2000/svg">
<path d="M40.5802 25.4243C40.5802 17.2018 40.586 8.9785 40.5671 0.755939C40.5657 0.193068 40.652 -0.0252631 41.2823 0.00230018C42.5996 0.0588774 42.6017 0.0182596 42.6017 1.31881C42.6017 17.5173 42.6025 33.7165 42.5996 49.915C42.5996 50.8718 42.7171 50.7383 41.7966 50.7448C40.5802 50.7535 40.5795 50.747 40.5795 49.5379C40.5802 41.4995 40.5802 33.4619 40.5802 25.4243Z" fill="#232323"/>
<path d="M27.1286 14.7646C29.5425 17.2548 30.9961 20.2171 31.3291 23.6698C31.8506 29.0751 29.9661 33.5389 25.8628 37.0691C24.7828 37.999 23.5635 38.7251 22.2383 39.2604C21.6261 39.5078 20.9791 39.3446 20.3487 39.3852C20.2174 39.4367 20.0862 39.4621 19.9592 39.3736C17.7317 39.1277 15.6253 38.5061 13.5936 37.3136C19.8722 36.6753 24.5166 33.6963 27.1431 28.0037C29.1276 23.7024 29.0529 19.2865 27.1206 14.9322C27.0727 14.8734 27.0756 14.8176 27.1286 14.7646Z" fill="#D36944"/>
<path d="M1.68913 20.7046C2.98098 16.7383 5.45515 13.7165 9.1849 11.88C14.5677 9.22953 19.8265 9.6379 24.8561 12.9237C25.2601 13.1878 25.5698 13.5113 25.8121 13.9363C27.1627 16.306 27.8329 18.8513 27.8648 21.6918C27.3767 21.0738 26.9755 20.5181 26.5266 20.0046C23.7071 16.7811 20.1848 14.8749 15.8951 14.5725C10.1046 14.1641 5.43919 16.3503 1.85597 20.8931C1.7624 20.8641 1.70509 20.8025 1.68913 20.7046Z" fill="#FE824F"/>
<path d="M8.01771 33.1457C9.1906 34.7096 10.4912 36.1501 12.1188 37.2548C14.3761 38.7875 16.8329 39.7914 19.582 39.9894C19.6799 40.0583 19.677 40.1323 19.5928 40.2106C16.6138 40.8446 13.6769 40.7561 10.8176 39.6405C6.20942 37.8431 3.13756 34.5884 1.59112 29.8795C0.92307 27.8456 0.89623 25.766 0.999955 23.6668C1.00721 23.5268 1.03622 23.3789 1.0928 23.2505C2.0314 21.1143 4.79862 18.263 7.04502 17.1532C6.85498 17.5848 6.678 17.9438 6.5351 18.3159C4.60205 23.3419 5.00099 28.1618 7.82187 32.7663C7.88498 32.8701 7.93357 32.9825 7.98942 33.0906C7.96041 33.1109 7.9459 33.121 7.9459 33.121C7.95388 33.1747 7.97854 33.1834 8.01771 33.1457Z" fill="#FF6F5C"/>
<path d="M1.68911 20.7045C1.74496 20.7676 1.80009 20.83 1.85594 20.8931C1.80009 21.015 1.75077 21.2319 1.58684 21.1071C1.44032 20.9968 1.39897 20.7749 1.68911 20.7045Z" fill="#B57C64"/>
<path d="M8.01778 33.1457C7.9525 33.264 7.90391 33.4127 7.72475 33.3626C7.69066 33.3532 7.65221 33.2618 7.66092 33.2168C7.69936 33.0086 7.86329 33.0928 7.98878 33.0906C8.00836 33.1037 8.01851 33.1218 8.01778 33.1457Z" fill="#984F2F"/>
<path d="M19.5922 40.2107C19.5886 40.1367 19.5849 40.0634 19.582 39.9894C19.7561 39.9894 19.9309 39.9894 20.1442 39.9894C19.9643 40.1483 19.7909 40.2107 19.5922 40.2107Z" fill="#FEDCCE"/>
<path d="M27.1286 14.7646C27.1257 14.8205 27.1235 14.8763 27.1206 14.9322C26.9995 14.8263 26.9168 14.703 26.9335 14.5267C27.0938 14.5376 27.1206 14.6435 27.1286 14.7646Z" fill="#FED3C1"/>
<path d="M19.9592 39.3728C20.089 39.3764 20.2188 39.3808 20.3487 39.3844C20.2137 39.565 20.0781 39.7289 19.9592 39.3728Z" fill="#BFBDBC"/>
<path d="M26.4496 33.2799C26.4068 33.3046 26.3466 33.3626 26.2813 33.3698C26.1776 33.3807 26.1609 33.2886 26.166 33.2074C26.1718 33.1087 26.245 33.0804 26.3299 33.0833C26.4271 33.087 26.4619 33.1486 26.4496 33.2799Z" fill="#984F2F"/>
<path d="M7.78418 14.5775C7.86469 14.5826 7.96043 14.5935 7.94375 14.6957C7.9336 14.7581 7.87049 14.8365 7.81174 14.8604C7.7305 14.893 7.66232 14.8386 7.65942 14.7414C7.65652 14.6566 7.68553 14.5891 7.78418 14.5775Z" fill="#984F2F"/>
<path d="M20.2805 14.7726C20.2377 14.7972 20.1789 14.856 20.1137 14.864C20.0092 14.8763 19.994 14.7835 19.9969 14.7037C19.9998 14.6043 20.0745 14.576 20.1579 14.5789C20.2529 14.5818 20.2899 14.6427 20.2805 14.7726Z" fill="#984F2F"/>
<path d="M14.1244 39.4228C14.0816 39.4562 14.0287 39.5258 13.9634 39.5396C13.8727 39.5592 13.8256 39.4802 13.8256 39.3953C13.8256 39.3053 13.8843 39.2495 13.9728 39.2495C14.0577 39.2488 14.1179 39.2945 14.1244 39.4228Z" fill="#984F2F"/>
<path d="M1.77609 27.1115C1.73329 27.1362 1.67308 27.1949 1.6078 27.2015C1.50408 27.2124 1.4874 27.1202 1.49247 27.039C1.49828 26.9403 1.57154 26.9121 1.6564 26.915C1.7536 26.9186 1.78842 26.9802 1.77609 27.1115Z" fill="#984F2F"/>
<path d="M52.8083 6.18582H59.5366V35.2586H52.8083V6.18582Z" fill="#232323"/>
<path d="M93.094 6.18582V35.2586H87.5705L73.0758 17.6072V35.2586H66.4309V6.18582H71.9965L86.4498 23.8372V6.18582H93.094Z" fill="#232323"/>
<path d="M99.9878 6.18582H113.195C122.706 6.18582 129.227 11.9175 129.227 20.7218C129.227 29.5268 122.706 35.2578 113.195 35.2578H99.9878V6.18582ZM112.863 29.735C118.636 29.735 122.415 26.2882 122.415 20.7226C122.415 15.1569 118.635 11.7101 112.863 11.7101H106.716V29.735H112.863Z" fill="#232323"/>
<path d="M156.803 29.8598V35.2593H134.292V6.18655H156.263V11.5861H140.979V17.8988H154.477V23.1322H140.979V29.8605H156.803V29.8598Z" fill="#232323"/>
<path d="M188.824 6.18582V35.2586H183.3L168.805 17.6072V35.2586H162.16V6.18582H167.726L182.179 23.8372V6.18582H188.824Z" fill="#232323"/>
<path d="M201.739 11.6687H192.436V6.18655H217.771V11.6687H208.467V35.2593H201.739V11.6687Z" fill="#232323"/>
<path d="M219.141 20.7226C219.141 12.0837 225.869 5.68753 235.048 5.68753C244.185 5.68753 250.955 12.0423 250.955 20.7226C250.955 29.4028 244.185 35.7576 235.048 35.7576C225.869 35.7569 219.141 29.3615 219.141 20.7226ZM244.143 20.7226C244.143 15.199 240.239 11.4192 235.047 11.4192C229.856 11.4192 225.951 15.199 225.951 20.7226C225.951 26.2461 229.855 30.0259 235.047 30.0259C240.239 30.0259 244.143 26.2461 244.143 20.7226Z" fill="#232323"/>
<path d="M53.7997 41.957H54.2414L55.349 45.0035H54.9617L54.7354 44.3811H53.3057L53.0816 45.0035H52.6921L53.7997 41.957ZM53.4406 44.0156H54.6005L54.0195 42.4249L53.4406 44.0156Z" fill="black"/>
<path d="M57.3814 45.003V41.9565H57.7774L59.2985 44.3415V41.9565H59.6641V45.003H59.2702L57.747 42.618V45.003H57.3814Z" fill="black"/>
<path d="M65.696 45.0595C65.4523 45.0595 65.2405 45 65.0614 44.8811C64.8822 44.7621 64.7444 44.6025 64.6479 44.4016C64.5515 44.2007 64.5029 43.978 64.5029 43.7321V41.9565H64.8684V43.7321C64.8684 43.9062 64.9004 44.0665 64.9649 44.213C65.0295 44.3596 65.123 44.4763 65.2456 44.5634C65.3682 44.6504 65.5176 44.6939 65.6946 44.6939C65.8745 44.6939 66.0254 44.6504 66.1472 44.5619C66.2691 44.4742 66.3619 44.3574 66.425 44.2116C66.4881 44.0658 66.5201 43.9055 66.5201 43.7314V41.9557H66.8856V43.7314C66.8856 43.9156 66.8581 44.0883 66.8029 44.2479C66.7478 44.4082 66.668 44.5489 66.5643 44.6707C66.4606 44.7926 66.3351 44.8876 66.1893 44.9558C66.0435 45.0254 65.8788 45.0595 65.696 45.0595Z" fill="black"/>
<path d="M69.0167 45.003V41.9565H69.3823V44.6374H70.7467V45.003H69.0167Z" fill="black"/>
<path d="M74.8399 41.9565V42.3221H73.8259V45.003H73.4603V42.3221H72.4484V41.9565H74.8399Z" fill="black"/>
<path d="M76.9768 45.003V41.9565H77.3424V45.003H76.9768Z" fill="black"/>
<path d="M79.5665 45.003L80.1562 41.9565H80.4369L81.2594 44.1195L82.0798 41.9565H82.3605L82.9524 45.003H82.5803L82.1516 42.7921L81.3791 44.8376H81.1376L80.3651 42.7921L79.9385 45.003H79.5665Z" fill="black"/>
<path d="M85.9421 41.9565H86.3839L87.4915 45.003H87.1041L86.8778 44.3806H85.4482L85.224 45.003H84.8345L85.9421 41.9565ZM85.5831 44.015H86.7429L86.1619 42.4244L85.5831 44.015Z" fill="black"/>
<path d="M91.4802 41.9565V42.3221H90.4661V45.003H90.1005V42.3221H89.0887V41.9565H91.4802Z" fill="black"/>
<path d="M93.5518 45.003V41.9565H95.421V42.3221H93.9174V43.1882H95.149V43.5537H93.9174V44.6374H95.421V45.003H93.5518Z" fill="black"/>
<path d="M102.521 41.9565V42.3221H101.507V45.003H101.142V42.3221H100.13V41.9565H102.521Z" fill="black"/>
<path d="M104.658 45.003V41.9565H105.024V45.003H104.658Z" fill="black"/>
<path d="M107.248 45.003L107.838 41.9565H108.118L108.941 44.1195L109.761 41.9565H110.042L110.634 45.003H110.262L109.833 42.7921L109.061 44.8376H108.819L108.046 42.7921L107.62 45.003H107.248Z" fill="black"/>
<path d="M112.718 45.003V41.9565H114.588V42.3221H113.084V43.1882H114.316V43.5537H113.084V44.6374H114.588V45.003H112.718Z" fill="black"/>
<path d="M120.456 45.0596C120.292 45.0596 120.134 45.0342 119.982 44.9827C119.83 44.9312 119.697 44.8579 119.583 44.7622C119.469 44.6664 119.389 44.5526 119.341 44.4205L119.682 44.2922C119.711 44.3734 119.765 44.4445 119.845 44.5047C119.924 44.5649 120.017 44.612 120.124 44.6447C120.231 44.6781 120.342 44.6947 120.457 44.6947C120.588 44.6947 120.709 44.6737 120.822 44.6302C120.934 44.5874 121.025 44.5279 121.095 44.4503C121.164 44.3734 121.199 44.2834 121.199 44.1804C121.199 44.0745 121.163 43.9875 121.09 43.9208C121.018 43.8533 120.925 43.7997 120.812 43.7598C120.698 43.7199 120.58 43.6887 120.457 43.6676C120.247 43.6328 120.058 43.5828 119.893 43.5182C119.727 43.4537 119.595 43.3637 119.499 43.2477C119.402 43.1316 119.354 42.9785 119.354 42.7885C119.354 42.6115 119.405 42.457 119.507 42.325C119.61 42.193 119.745 42.0907 119.913 42.0182C120.081 41.9457 120.263 41.9094 120.457 41.9094C120.618 41.9094 120.775 41.9348 120.926 41.9848C121.078 42.0349 121.211 42.1074 121.327 42.2039C121.443 42.2996 121.527 42.4164 121.578 42.5542L121.232 42.6804C121.203 42.5977 121.148 42.5267 121.069 42.4657C120.99 42.4055 120.897 42.3591 120.791 42.3265C120.684 42.2938 120.573 42.2779 120.456 42.2779C120.327 42.2764 120.207 42.2975 120.095 42.341C119.983 42.3845 119.893 42.4447 119.823 42.5216C119.753 42.5985 119.719 42.6877 119.719 42.7892C119.719 42.9111 119.751 43.0047 119.815 43.0685C119.88 43.1331 119.968 43.1817 120.08 43.2136C120.191 43.2455 120.317 43.2738 120.456 43.2984C120.654 43.3318 120.836 43.3847 121.005 43.4558C121.173 43.5276 121.308 43.6234 121.41 43.7423C121.512 43.8613 121.564 44.0078 121.564 44.1819C121.564 44.3589 121.512 44.5134 121.41 44.6454C121.308 44.7774 121.172 44.8797 121.005 44.9522C120.836 45.0233 120.654 45.0596 120.456 45.0596Z" fill="black"/>
<path d="M124.495 41.9565H124.937L126.044 45.003H125.657L125.431 44.3806H124.001L123.777 45.003H123.387L124.495 41.9565ZM124.136 44.015H125.296L124.715 42.4244L124.136 44.015Z" fill="black"/>
<path d="M128.706 45.003L127.6 41.9565H127.987L128.932 44.5569L129.878 41.9565H130.264L129.158 45.003H128.706Z" fill="black"/>
<path d="M132.359 45.003V41.9565H132.725V45.003H132.359Z" fill="black"/>
<path d="M134.949 45.003V41.9565H135.345L136.866 44.3415V41.9565H137.232V45.003H136.838L135.314 42.618V45.003H134.949Z" fill="black"/>
<path d="M140.802 45.0596C140.592 45.0596 140.395 45.019 140.213 44.937C140.031 44.8551 139.872 44.7412 139.737 44.5954C139.601 44.4496 139.495 44.2813 139.418 44.0905C139.342 43.8998 139.303 43.696 139.303 43.4784C139.303 43.2535 139.343 43.0453 139.424 42.8538C139.505 42.6623 139.615 42.4955 139.755 42.3533C139.895 42.2112 140.055 42.1009 140.236 42.0211C140.417 41.9421 140.607 41.9029 140.81 41.9029C141.039 41.9029 141.257 41.9566 141.465 42.0639C141.672 42.1713 141.851 42.3265 142 42.5296L141.674 42.7059C141.562 42.5637 141.429 42.4549 141.276 42.3795C141.123 42.304 140.966 42.2663 140.805 42.2663C140.651 42.2663 140.506 42.2975 140.369 42.3599C140.232 42.4222 140.11 42.5093 140.005 42.621C139.9 42.7327 139.818 42.8618 139.758 43.0083C139.698 43.1548 139.669 43.3137 139.669 43.4849C139.669 43.6517 139.698 43.8084 139.758 43.9549C139.817 44.1014 139.899 44.2298 140.003 44.3415C140.107 44.4525 140.227 44.5395 140.366 44.6012C140.504 44.6636 140.651 44.6948 140.807 44.6948C140.932 44.6948 141.05 44.6737 141.164 44.6316C141.276 44.5896 141.38 44.5301 141.475 44.4532C141.57 44.3763 141.651 44.2857 141.719 44.1812C141.786 44.0768 141.837 43.9622 141.872 43.8374H141.122V43.511H142.299C142.297 43.7242 142.257 43.9244 142.178 44.1116C142.099 44.2987 141.991 44.4634 141.853 44.6055C141.716 44.7477 141.558 44.8594 141.379 44.9399C141.198 45.0197 141.007 45.0596 140.802 45.0596Z" fill="black"/>
<path d="M148.122 45.0596C147.958 45.0596 147.8 45.0342 147.648 44.9827C147.495 44.9312 147.362 44.8579 147.249 44.7622C147.135 44.6664 147.054 44.5526 147.006 44.4205L147.348 44.2922C147.377 44.3734 147.431 44.4445 147.51 44.5047C147.589 44.5649 147.682 44.612 147.79 44.6447C147.897 44.6781 148.008 44.6947 148.123 44.6947C148.253 44.6947 148.375 44.6737 148.487 44.6302C148.6 44.5874 148.691 44.5279 148.76 44.4503C148.83 44.3734 148.865 44.2834 148.865 44.1804C148.865 44.0745 148.828 43.9875 148.756 43.9208C148.683 43.8533 148.59 43.7997 148.477 43.7598C148.364 43.7199 148.246 43.6887 148.123 43.6676C147.912 43.6328 147.724 43.5828 147.558 43.5182C147.392 43.4537 147.261 43.3637 147.164 43.2477C147.068 43.1316 147.019 42.9785 147.019 42.7885C147.019 42.6115 147.071 42.457 147.173 42.325C147.275 42.193 147.41 42.0907 147.579 42.0182C147.747 41.9457 147.928 41.9094 148.123 41.9094C148.284 41.9094 148.44 41.9348 148.592 41.9848C148.744 42.0349 148.877 42.1074 148.993 42.2039C149.109 42.2996 149.193 42.4164 149.243 42.5542L148.897 42.6804C148.868 42.5977 148.814 42.5267 148.735 42.4657C148.656 42.4055 148.563 42.3591 148.456 42.3265C148.35 42.2938 148.239 42.2779 148.122 42.2779C147.993 42.2764 147.872 42.2975 147.761 42.341C147.649 42.3845 147.558 42.4447 147.489 42.5216C147.419 42.5985 147.384 42.6877 147.384 42.7892C147.384 42.9111 147.417 43.0047 147.481 43.0685C147.545 43.1331 147.634 43.1817 147.745 43.2136C147.857 43.2455 147.983 43.2738 148.122 43.2984C148.319 43.3318 148.502 43.3847 148.67 43.4558C148.839 43.5276 148.973 43.6234 149.076 43.7423C149.178 43.8613 149.23 44.0078 149.23 44.1819C149.23 44.3589 149.178 44.5134 149.076 44.6454C148.973 44.7774 148.838 44.8797 148.67 44.9522C148.502 45.0233 148.319 45.0596 148.122 45.0596Z" fill="black"/>
<path d="M152.745 45.0595C152.539 45.0595 152.345 45.0189 152.164 44.937C151.982 44.855 151.823 44.7418 151.685 44.5968C151.547 44.4517 151.439 44.2841 151.361 44.0926C151.282 43.9019 151.243 43.6981 151.243 43.4805C151.243 43.2628 151.282 43.059 151.361 42.8683C151.439 42.6775 151.547 42.5099 151.685 42.3641C151.823 42.2191 151.982 42.1059 152.164 42.0239C152.345 41.942 152.539 41.9014 152.745 41.9014C152.952 41.9014 153.147 41.942 153.328 42.0239C153.509 42.1059 153.669 42.2198 153.807 42.3641C153.944 42.5092 154.052 42.6775 154.13 42.8683C154.208 43.059 154.246 43.2628 154.246 43.4805C154.246 43.6981 154.207 43.9026 154.13 44.0926C154.053 44.2834 153.944 44.4517 153.807 44.5968C153.669 44.7418 153.509 44.855 153.328 44.937C153.147 45.0189 152.952 45.0595 152.745 45.0595ZM152.745 44.694C152.903 44.694 153.051 44.662 153.188 44.5982C153.325 44.5344 153.445 44.4466 153.549 44.3335C153.653 44.221 153.734 44.0919 153.793 43.9461C153.852 43.8003 153.881 43.6444 153.881 43.479C153.881 43.3136 153.851 43.157 153.791 43.0104C153.732 42.8632 153.65 42.7341 153.546 42.6231C153.443 42.5121 153.322 42.4251 153.185 42.3612C153.048 42.2974 152.901 42.2655 152.744 42.2655C152.586 42.2655 152.439 42.2974 152.302 42.3612C152.164 42.4251 152.044 42.5136 151.94 42.626C151.837 42.7384 151.755 42.8675 151.697 43.0133C151.638 43.1591 151.609 43.3151 151.609 43.4805C151.609 43.6473 151.639 43.804 151.698 43.9505C151.758 44.097 151.84 44.2261 151.943 44.3378C152.047 44.4495 152.167 44.5373 152.304 44.6004C152.441 44.6628 152.588 44.694 152.745 44.694Z" fill="black"/>
<path d="M156.31 45.003V41.9565H156.676V44.6374H158.04V45.003H156.31Z" fill="black"/>
<path d="M161.177 45.0595C160.933 45.0595 160.721 45 160.542 44.8811C160.363 44.7621 160.225 44.6025 160.129 44.4016C160.032 44.2007 159.984 43.978 159.984 43.7321V41.9565H160.349V43.7321C160.349 43.9062 160.382 44.0665 160.446 44.213C160.51 44.3596 160.604 44.4763 160.726 44.5634C160.849 44.6504 160.998 44.6939 161.176 44.6939C161.356 44.6939 161.507 44.6504 161.629 44.5619C161.751 44.4742 161.843 44.3574 161.907 44.2116C161.97 44.0658 162.001 43.9055 162.001 43.7314V41.9557H162.366V43.7314C162.366 43.9156 162.339 44.0883 162.284 44.2479C162.229 44.4082 162.15 44.5489 162.046 44.6707C161.942 44.7926 161.817 44.8876 161.67 44.9558C161.524 45.0254 161.36 45.0595 161.177 45.0595Z" fill="black"/>
<path d="M166.83 41.9565V42.3221H165.816V45.003H165.451V42.3221H164.439V41.9565H166.83Z" fill="black"/>
<path d="M168.966 45.003V41.9565H169.332V45.003H168.966Z" fill="black"/>
<path d="M172.97 45.0595C172.764 45.0595 172.571 45.0189 172.389 44.937C172.208 44.855 172.048 44.7418 171.911 44.5968C171.773 44.4517 171.665 44.2841 171.586 44.0926C171.508 43.9019 171.469 43.6981 171.469 43.4805C171.469 43.2628 171.508 43.059 171.586 42.8683C171.665 42.6775 171.773 42.5099 171.911 42.3641C172.048 42.2191 172.208 42.1059 172.389 42.0239C172.571 41.942 172.764 41.9014 172.97 41.9014C173.178 41.9014 173.372 41.942 173.554 42.0239C173.735 42.1059 173.894 42.2198 174.032 42.3641C174.17 42.5092 174.277 42.6775 174.356 42.8683C174.433 43.059 174.472 43.2628 174.472 43.4805C174.472 43.6981 174.433 43.9026 174.356 44.0926C174.278 44.2834 174.17 44.4517 174.032 44.5968C173.894 44.7418 173.735 44.855 173.554 44.937C173.372 45.0189 173.178 45.0595 172.97 45.0595ZM172.97 44.694C173.128 44.694 173.276 44.662 173.414 44.5982C173.551 44.5344 173.671 44.4466 173.775 44.3335C173.878 44.221 173.96 44.0919 174.018 43.9461C174.077 43.8003 174.106 43.6444 174.106 43.479C174.106 43.3136 174.077 43.157 174.017 43.0104C173.958 42.8632 173.876 42.7341 173.772 42.6231C173.668 42.5121 173.548 42.4251 173.411 42.3612C173.274 42.2974 173.126 42.2655 172.97 42.2655C172.812 42.2655 172.664 42.2974 172.527 42.3612C172.39 42.4251 172.27 42.5136 172.166 42.626C172.062 42.7384 171.981 42.8675 171.922 43.0133C171.863 43.1591 171.834 43.3151 171.834 43.4805C171.834 43.6473 171.864 43.804 171.924 43.9505C171.983 44.097 172.065 44.2261 172.169 44.3378C172.273 44.4495 172.393 44.5373 172.53 44.6004C172.667 44.6628 172.814 44.694 172.97 44.694Z" fill="black"/>
<path d="M176.537 45.003V41.9565H176.933L178.454 44.3415V41.9565H178.819V45.003H178.426L176.902 42.618V45.003H176.537Z" fill="black"/>
<path d="M183.659 45.003V41.9565H185.446V42.3221H184.025V43.1882H185.237V43.5537H184.025V45.003H183.659Z" fill="black"/>
<path d="M188.729 45.0595C188.523 45.0595 188.33 45.0189 188.148 44.937C187.967 44.855 187.807 44.7418 187.67 44.5968C187.532 44.4517 187.424 44.2841 187.345 44.0926C187.267 43.9019 187.228 43.6981 187.228 43.4805C187.228 43.2628 187.267 43.059 187.345 42.8683C187.424 42.6775 187.532 42.5099 187.67 42.3641C187.807 42.2191 187.967 42.1059 188.148 42.0239C188.33 41.942 188.523 41.9014 188.729 41.9014C188.937 41.9014 189.131 41.942 189.312 42.0239C189.494 42.1059 189.653 42.2198 189.791 42.3641C189.929 42.5092 190.036 42.6775 190.115 42.8683C190.192 43.059 190.231 43.2628 190.231 43.4805C190.231 43.6981 190.192 43.9026 190.115 44.0926C190.037 44.2834 189.929 44.4517 189.791 44.5968C189.653 44.7418 189.494 44.855 189.312 44.937C189.131 45.0189 188.937 45.0595 188.729 45.0595ZM188.729 44.694C188.887 44.694 189.035 44.662 189.172 44.5982C189.31 44.5344 189.43 44.4466 189.534 44.3335C189.637 44.221 189.719 44.0919 189.777 43.9461C189.836 43.8003 189.865 43.6444 189.865 43.479C189.865 43.3136 189.835 43.157 189.776 43.0104C189.716 42.8632 189.634 42.7341 189.531 42.6231C189.427 42.5121 189.307 42.4251 189.17 42.3612C189.032 42.2974 188.885 42.2655 188.729 42.2655C188.57 42.2655 188.423 42.2974 188.286 42.3612C188.149 42.4251 188.029 42.5136 187.925 42.626C187.821 42.7384 187.74 42.8675 187.681 43.0133C187.622 43.1591 187.593 43.3151 187.593 43.4805C187.593 43.6473 187.623 43.804 187.683 43.9505C187.742 44.097 187.824 44.2261 187.928 44.3378C188.031 44.4495 188.152 44.5373 188.289 44.6004C188.426 44.6628 188.573 44.694 188.729 44.694Z" fill="black"/>
<path d="M192.296 45.003V41.9565H193.366C193.529 41.9565 193.675 41.9964 193.807 42.0762C193.938 42.156 194.042 42.2641 194.12 42.3997C194.198 42.5353 194.237 42.6869 194.237 42.8531C194.237 42.9996 194.208 43.133 194.15 43.2534C194.092 43.3738 194.012 43.4739 193.911 43.5552C193.81 43.6357 193.696 43.6916 193.569 43.7213L194.309 45.003H193.886L193.16 43.7518H192.661V45.003H192.296ZM192.661 43.3862H193.329C193.428 43.3862 193.519 43.3622 193.601 43.3136C193.684 43.265 193.749 43.199 193.799 43.1156C193.847 43.0322 193.871 42.9379 193.871 42.8335C193.871 42.7276 193.846 42.6333 193.799 42.5491C193.75 42.4657 193.684 42.3997 193.601 42.3511C193.519 42.3025 193.428 42.2786 193.329 42.2786H192.661V43.3862Z" fill="black"/>
<path d="M201.4 41.9565V42.3221H200.386V45.003H200.021V42.3221H199.009V41.9565H201.4Z" fill="black"/>
<path d="M205.346 41.9565H205.711V45.003H205.346V43.5537H203.838V45.003H203.472V41.9565H203.838V43.1882H205.346V41.9565Z" fill="black"/>
<path d="M207.87 45.003V41.9565H209.739V42.3221H208.235V43.1882H209.467V43.5537H208.235V44.6374H209.739V45.003H207.87Z" fill="black"/>
<path d="M214.6 45.003V41.9565H214.966V45.003H214.6Z" fill="black"/>
<path d="M217.19 45.003V41.9565H217.586L219.107 44.3415V41.9565H219.472V45.003H219.079L217.555 42.618V45.003H217.19Z" fill="black"/>
<path d="M221.631 45.003V41.9565H222.638C222.849 41.9565 223.046 41.9957 223.23 42.0747C223.415 42.1538 223.576 42.2633 223.716 42.4033C223.855 42.5433 223.964 42.7051 224.043 42.8886C224.123 43.0721 224.162 43.2694 224.162 43.4797C224.162 43.6901 224.123 43.8874 224.043 44.0709C223.964 44.2544 223.855 44.4162 223.716 44.5562C223.576 44.6962 223.415 44.8057 223.23 44.8847C223.046 44.9638 222.849 45.003 222.638 45.003H221.631ZM221.997 44.6374H222.638C222.798 44.6374 222.947 44.6069 223.087 44.5467C223.227 44.4865 223.35 44.4038 223.456 44.2972C223.562 44.1913 223.645 44.0687 223.705 43.9287C223.766 43.7887 223.796 43.6393 223.796 43.4797C223.796 43.3202 223.766 43.1708 223.705 43.0308C223.645 42.8908 223.562 42.7682 223.455 42.6623C223.349 42.5564 223.225 42.4737 223.087 42.4128C222.948 42.3518 222.798 42.3221 222.638 42.3221H221.997V44.6374Z" fill="black"/>
<path d="M226.183 45.003V41.9565H228.053V42.3221H226.549V43.1882H227.781V43.5537H226.549V44.6374H228.053V45.003H226.183Z" fill="black"/>
<path d="M230.192 45.003V41.9565H230.588L232.109 44.3415V41.9565H232.474V45.003H232.08L230.557 42.618V45.003H230.192Z" fill="black"/>
<path d="M236.938 41.9565V42.3221H235.923V45.003H235.558V42.3221H234.546V41.9565H236.938Z" fill="black"/>
<path d="M240.249 45.0595C240.043 45.0595 239.849 45.0189 239.668 44.937C239.486 44.855 239.327 44.7418 239.189 44.5968C239.051 44.4517 238.943 44.2841 238.865 44.0926C238.786 43.9019 238.747 43.6981 238.747 43.4805C238.747 43.2628 238.786 43.059 238.865 42.8683C238.943 42.6775 239.051 42.5099 239.189 42.3641C239.327 42.2191 239.486 42.1059 239.668 42.0239C239.849 41.942 240.043 41.9014 240.249 41.9014C240.456 41.9014 240.651 41.942 240.832 42.0239C241.013 42.1059 241.173 42.2198 241.311 42.3641C241.448 42.5092 241.556 42.6775 241.634 42.8683C241.712 43.059 241.75 43.2628 241.75 43.4805C241.75 43.6981 241.711 43.9026 241.634 44.0926C241.556 44.2834 241.448 44.4517 241.311 44.5968C241.173 44.7418 241.013 44.855 240.832 44.937C240.651 45.0189 240.456 45.0595 240.249 45.0595ZM240.249 44.694C240.407 44.694 240.555 44.662 240.692 44.5982C240.829 44.5344 240.949 44.4466 241.053 44.3335C241.157 44.221 241.238 44.0919 241.297 43.9461C241.356 43.8003 241.385 43.6444 241.385 43.479C241.385 43.3136 241.355 43.157 241.295 43.0104C241.236 42.8632 241.154 42.7341 241.05 42.6231C240.946 42.5121 240.826 42.4251 240.689 42.3612C240.552 42.2974 240.405 42.2655 240.248 42.2655C240.09 42.2655 239.943 42.2974 239.806 42.3612C239.668 42.4251 239.548 42.5136 239.444 42.626C239.341 42.7384 239.259 42.8675 239.201 43.0133C239.142 43.1591 239.113 43.3151 239.113 43.4805C239.113 43.6473 239.143 43.804 239.202 43.9505C239.261 44.097 239.343 44.2261 239.447 44.3378C239.551 44.4495 239.671 44.5373 239.808 44.6004C239.945 44.6628 240.093 44.694 240.249 44.694Z" fill="black"/>
<path d="M243.815 45.003V41.9565H244.886C245.048 41.9565 245.195 41.9964 245.326 42.0762C245.457 42.156 245.562 42.2641 245.639 42.3997C245.717 42.5353 245.756 42.6869 245.756 42.8531C245.756 42.9996 245.727 43.133 245.669 43.2534C245.611 43.3738 245.531 43.4739 245.43 43.5552C245.33 43.6357 245.216 43.6916 245.088 43.7213L245.828 45.003H245.406L244.679 43.7518H244.181V45.003H243.815ZM244.181 43.3862H244.849C244.947 43.3862 245.038 43.3622 245.121 43.3136C245.203 43.265 245.269 43.199 245.318 43.1156C245.367 43.0322 245.391 42.9379 245.391 42.8335C245.391 42.7276 245.366 42.6333 245.318 42.5491C245.269 42.4657 245.203 42.3997 245.121 42.3511C245.038 42.3025 244.947 42.2786 244.849 42.2786H244.181V43.3862Z" fill="black"/>
<path d="M248.988 45.0596C248.824 45.0596 248.666 45.0342 248.513 44.9827C248.361 44.9312 248.228 44.8579 248.114 44.7622C248.001 44.6664 247.92 44.5526 247.872 44.4205L248.214 44.2922C248.243 44.3734 248.296 44.4445 248.376 44.5047C248.455 44.5649 248.548 44.612 248.655 44.6447C248.763 44.6781 248.874 44.6947 248.988 44.6947C249.119 44.6947 249.241 44.6737 249.353 44.6302C249.466 44.5874 249.556 44.5279 249.626 44.4503C249.696 44.3734 249.73 44.2834 249.73 44.1804C249.73 44.0745 249.694 43.9875 249.622 43.9208C249.549 43.8533 249.456 43.7997 249.343 43.7598C249.23 43.7199 249.112 43.6887 248.988 43.6676C248.778 43.6328 248.589 43.5828 248.424 43.5182C248.258 43.4537 248.127 43.3637 248.03 43.2477C247.934 43.1316 247.885 42.9785 247.885 42.7885C247.885 42.6115 247.937 42.457 248.039 42.325C248.141 42.193 248.276 42.0907 248.444 42.0182C248.613 41.9457 248.794 41.9094 248.988 41.9094C249.149 41.9094 249.306 41.9348 249.458 41.9848C249.609 42.0349 249.743 42.1074 249.859 42.2039C249.975 42.2996 250.058 42.4164 250.109 42.5542L249.763 42.6804C249.734 42.5977 249.68 42.5267 249.601 42.4657C249.522 42.4055 249.429 42.3591 249.322 42.3265C249.215 42.2938 249.104 42.2779 248.988 42.2779C248.859 42.2764 248.738 42.2975 248.626 42.341C248.515 42.3845 248.424 42.4447 248.354 42.5216C248.285 42.5985 248.25 42.6877 248.25 42.7892C248.25 42.9111 248.283 43.0047 248.347 43.0685C248.411 43.1331 248.5 43.1817 248.611 43.2136C248.723 43.2455 248.848 43.2738 248.988 43.2984C249.185 43.3318 249.368 43.3847 249.536 43.4558C249.704 43.5276 249.839 43.6234 249.942 43.7423C250.044 43.8613 250.095 44.0078 250.095 44.1819C250.095 44.3589 250.044 44.5134 249.942 44.6454C249.839 44.7774 249.704 44.8797 249.536 44.9522C249.368 45.0233 249.185 45.0596 248.988 45.0596Z" fill="black"/>
</svg>
