<svg width="41" height="40" viewBox="0 0 41 40" fill="none" xmlns="http://www.w3.org/2000/svg">
<path d="M20.0174 24.3666C19.4107 24.3666 18.844 24.2557 18.3171 24.0338C17.7902 23.812 17.3272 23.5029 16.9281 23.1068C16.5289 22.7106 16.2176 22.2431 15.9941 21.7043C15.7706 21.1655 15.6588 20.595 15.6588 19.9928C15.6588 19.3906 15.7706 18.828 15.9941 18.305C16.2176 17.7821 16.5289 17.3225 16.9281 16.9263C17.3272 16.5301 17.7902 16.2211 18.3171 15.9993C18.844 15.7774 19.4107 15.6665 20.0174 15.6665C21.2308 15.6665 22.2606 16.0864 23.1067 16.9263C23.9529 17.7662 24.376 18.7884 24.376 19.9928C24.376 20.595 24.2642 21.1655 24.0407 21.7043C23.8172 22.2431 23.5059 22.7106 23.1067 23.1068C22.7076 23.5029 22.2446 23.812 21.7177 24.0338C21.1909 24.2557 20.6241 24.3666 20.0174 24.3666ZM27.0103 19.9928C27.0103 19.7075 26.9944 19.4143 26.9624 19.1132C26.9305 18.8121 26.8826 18.5348 26.8187 18.2813H28.7825V27.8372C28.7825 28.0907 28.7027 28.2967 28.543 28.4552C28.3834 28.6137 28.1758 28.6929 27.9204 28.6929H12.1145C11.859 28.6929 11.6515 28.6137 11.4918 28.4552C11.3322 28.2967 11.2523 28.0907 11.2523 27.8372V18.2813H13.2161C13.1522 18.5348 13.1043 18.8121 13.0724 19.1132C13.0405 19.4143 13.0245 19.7075 13.0245 19.9928C13.0245 20.9436 13.2081 21.8469 13.5753 22.7026C13.9425 23.5584 14.4375 24.3032 15.0601 24.9371C15.6828 25.571 16.4252 26.0702 17.2873 26.4347C18.1495 26.7992 19.0595 26.9814 20.0174 26.9814C20.9753 26.9814 21.8854 26.7992 22.7475 26.4347C23.6097 26.0702 24.3521 25.571 24.9747 24.9371C25.5974 24.3032 26.0923 23.5584 26.4595 22.7026C26.8267 21.8469 27.0103 20.9436 27.0103 19.9928ZM20.209 0.0727539C22.987 0.0727539 25.5894 0.595714 28.0161 1.64163C30.4429 2.68755 32.5663 4.10588 34.3864 5.89662C36.2065 7.68736 37.6434 9.78713 38.6971 12.1959C39.7508 14.6047 40.2777 17.1878 40.2777 19.9452C40.2777 22.7026 39.7508 25.2858 38.6971 27.6945C37.6434 30.1033 36.2065 32.211 34.3864 34.0176C32.5663 35.8242 30.4429 37.2504 28.0161 38.2964C25.5894 39.3423 22.987 39.8652 20.209 39.8652C17.431 39.8652 14.8286 39.3423 12.4019 38.2964C9.9751 37.2504 7.85967 35.8242 6.05556 34.0176C4.25146 32.211 2.82254 30.1033 1.76882 27.6945C0.715095 25.2858 0.188232 22.7026 0.188232 19.9452C0.188232 17.1878 0.715095 14.6047 1.76882 12.1959C2.82254 9.78713 4.25146 7.68736 6.05556 5.89662C7.85967 4.10588 9.9751 2.68755 12.4019 1.64163C14.8286 0.595714 17.431 0.0727539 20.209 0.0727539ZM31.4168 11.2926C31.4168 10.5636 31.1614 9.9456 30.6505 9.43849C30.1396 8.93137 29.5169 8.67782 28.7825 8.67782H11.2523C10.5179 8.67782 9.89527 8.93137 9.38438 9.43849C8.87348 9.9456 8.61803 10.5636 8.61803 11.2926V28.6929C8.61803 29.4219 8.87348 30.0399 9.38438 30.547C9.89527 31.0542 10.5179 31.3077 11.2523 31.3077H28.7825C29.5169 31.3077 30.1396 31.0542 30.6505 30.547C31.1614 30.0399 31.4168 29.4219 31.4168 28.6929V11.2926ZM27.9204 11.2926C28.1758 11.2926 28.3834 11.3798 28.543 11.5541C28.7027 11.7284 28.7825 11.9424 28.7825 12.1959V14.8107C28.7825 15.0643 28.7027 15.2703 28.543 15.4288C28.3834 15.5872 28.1758 15.6665 27.9204 15.6665H25.286C25.0306 15.6665 24.8151 15.5872 24.6394 15.4288C24.4638 15.2703 24.376 15.0643 24.376 14.8107V12.1959C24.376 11.9424 24.4638 11.7284 24.6394 11.5541C24.8151 11.3798 25.0306 11.2926 25.286 11.2926H27.9204Z" fill="#323030"/>
</svg>
