<svg width="41" height="40" viewBox="0 0 41 40" fill="none" xmlns="http://www.w3.org/2000/svg">
<path d="M20.7666 0.0727539C23.5446 0.0727539 26.147 0.595714 28.5738 1.64163C31.0005 2.68755 33.1239 4.10588 34.944 5.89662C36.7641 7.68736 38.201 9.78713 39.2547 12.1959C40.3084 14.6047 40.8353 17.1878 40.8353 19.9452C40.8353 22.7026 40.3084 25.2858 39.2547 27.6945C38.201 30.1033 36.7641 32.211 34.944 34.0176C33.1239 35.8242 31.0005 37.2504 28.5738 38.2964C26.147 39.3423 23.5446 39.8652 20.7666 39.8652C17.9886 39.8652 15.3862 39.3423 12.9595 38.2964C10.5327 37.2504 8.41729 35.8242 6.61318 34.0176C4.80908 32.211 3.38016 30.1033 2.32644 27.6945C1.27271 25.2858 0.74585 22.7026 0.74585 19.9452C0.74585 17.1878 1.27271 14.6047 2.32644 12.1959C3.38016 9.78713 4.80908 7.68736 6.61318 5.89662C8.41729 4.10588 10.5327 2.68755 12.9595 1.64163C15.3862 0.595714 17.9886 0.0727539 20.7666 0.0727539ZM14.5401 15.0009H9.51092V31.1651H14.5401V15.0009ZM12.0015 13.7172C12.704 13.7172 13.3027 13.4795 13.7977 13.0041C14.2926 12.5287 14.5401 11.9424 14.5401 11.2451C14.5401 10.5478 14.2926 9.96145 13.7977 9.48603C13.3027 9.01061 12.704 8.7729 12.0015 8.7729C11.2991 8.7729 10.7083 9.01061 10.2294 9.48603C9.75041 9.96145 9.51092 10.5478 9.51092 11.2451C9.51092 11.9424 9.75041 12.5287 10.2294 13.0041C10.7083 13.4795 11.2991 13.7172 12.0015 13.7172ZM32.0702 21.7994C32.0702 20.6583 31.7509 19.5411 31.1123 18.4477C30.4737 17.3542 29.6435 16.5222 28.6217 15.9517C27.6957 15.4446 26.618 15.1752 25.3886 15.1435C24.1593 15.1118 23.0337 15.3178 22.0119 15.7615V15.0009H17.0307V31.1651H22.0119V21.2764L24.1194 20.278C24.3748 20.1512 24.7181 20.0878 25.1492 20.0878C25.5802 20.0878 25.9235 20.1671 26.1789 20.3256C26.3705 20.4206 26.5621 20.6267 26.7537 20.9436C26.9453 21.2605 27.0411 21.5458 27.0411 21.7994V31.1651H32.0702V21.7994Z" fill="#323030"/>
</svg>
