<svg width="21" height="20" viewBox="0 0 21 20" fill="none" xmlns="http://www.w3.org/2000/svg">
<g clip-path="url(#clip0_436_151)">
<path d="M7.86534 6.86345L10.0303 2.50345C10.0934 2.37727 10.1903 2.27114 10.3103 2.19696C10.4302 2.12279 10.5685 2.0835 10.7095 2.0835C10.8506 2.0835 10.9888 2.12279 11.1088 2.19696C11.2287 2.27114 11.3257 2.37727 11.3887 2.50345L13.5537 6.86345L18.3937 7.56678C18.5333 7.58614 18.6646 7.64436 18.7727 7.73479C18.8808 7.82522 18.9613 7.94423 19.005 8.07822C19.0487 8.21221 19.0539 8.35579 19.0199 8.49257C18.9859 8.62936 18.9142 8.75383 18.8128 8.85178L15.3112 12.2434L16.1378 17.0351C16.2437 17.6501 15.5937 18.1184 15.0378 17.8284L10.7095 15.5651L6.38034 17.8284C5.82534 18.1193 5.17534 17.6501 5.28117 17.0343L6.10784 12.2426L2.60617 8.85095C2.50533 8.75293 2.43401 8.62858 2.40031 8.49204C2.36662 8.3555 2.3719 8.21225 2.41557 8.07857C2.45923 7.94488 2.53952 7.82613 2.64732 7.73581C2.75511 7.64548 2.88608 7.58721 3.02534 7.56761L7.86534 6.86345Z" fill="#ADE103" stroke="#ADE103" stroke-width="2" stroke-linecap="round" stroke-linejoin="round"/>
</g>
<defs>
<clipPath id="clip0_436_151">
<rect width="20" height="20" fill="white" transform="translate(0.709534)"/>
</clipPath>
</defs>
</svg>
