<svg width="83" height="93" viewBox="0 0 83 93" fill="none" xmlns="http://www.w3.org/2000/svg">
<path d="M0 39.2344C0 27.1916 9.94888 17.4375 22.2321 17.4375H23.7143C26.9935 17.4375 29.6429 20.035 29.6429 23.25C29.6429 26.465 26.9935 29.0625 23.7143 29.0625H22.2321C16.5074 29.0625 11.8571 33.6217 11.8571 39.2344V40.6875H23.7143C30.2542 40.6875 35.5714 45.9006 35.5714 52.3125V63.9375C35.5714 70.3494 30.2542 75.5625 23.7143 75.5625H11.8571C5.31719 75.5625 0 70.3494 0 63.9375V39.2344ZM47.4286 39.2344C47.4286 27.1916 57.3775 17.4375 69.6607 17.4375H71.1429C74.4221 17.4375 77.0714 20.035 77.0714 23.25C77.0714 26.465 74.4221 29.0625 71.1429 29.0625H69.6607C63.9359 29.0625 59.2857 33.6217 59.2857 39.2344V40.6875H71.1429C77.6828 40.6875 83 45.9006 83 52.3125V63.9375C83 70.3494 77.6828 75.5625 71.1429 75.5625H59.2857C52.7458 75.5625 47.4286 70.3494 47.4286 63.9375V39.2344Z" fill="#EBEBEB"/>
</svg>
