<svg width="41" height="40" viewBox="0 0 41 40" fill="none" xmlns="http://www.w3.org/2000/svg">
<path d="M20.6995 0.0727539C23.4775 0.0727539 26.0799 0.595714 28.5067 1.64163C30.9334 2.68755 33.0489 4.10588 34.853 5.89662C36.6571 7.68736 38.086 9.78713 39.1397 12.1959C40.1934 14.6047 40.7203 17.1878 40.7203 19.9452C40.7203 22.7026 40.1934 25.2858 39.1397 27.6945C38.086 30.1033 36.6571 32.211 34.853 34.0176C33.0489 35.8242 30.9334 37.2504 28.5067 38.2964C26.0799 39.3423 23.4775 39.8652 20.6995 39.8652C17.9215 39.8652 15.3191 39.3423 12.8924 38.2964C10.4656 37.2504 8.34221 35.8242 6.52214 34.0176C4.70207 32.211 3.26517 30.1033 2.21145 27.6945C1.15772 25.2858 0.630859 22.7026 0.630859 19.9452C0.630859 17.1878 1.15772 14.6047 2.21145 12.1959C3.26517 9.78713 4.70207 7.68736 6.52214 5.89662C8.34221 4.10588 10.4656 2.68755 12.8924 1.64163C15.3191 0.595714 17.9215 0.0727539 20.6995 0.0727539ZM14.4251 24.9371L18.161 18.6616L15.6704 13.7172H10.6412L13.1798 18.6616L9.39593 24.9371H14.4251ZM23.1901 22.4174L30.7099 8.7729H25.6808L18.161 22.4174L23.1901 31.1651H28.1714L23.1901 22.4174Z" fill="#323030"/>
</svg>
